#!OML:ASF H:\ManfredObstacles\Project 1\Capture day 2\Session 1\male.ASF
:FULLY-SPECIFIED
:DEGREES
602
root 2.19258 15.1936 -21.6406 -162.613 3.45017 -182.139
lowerback 4.091 -3.63822 -2.51552
upperback 4.12877 -4.68971 0.443874
thorax 2.20564 -2.32326 1.95066
lowerneck -29.9439 4.09473 6.30292
upperneck 36.7431 6.97334 -4.63414
head 19.7467 3.39936 -1.42098
rclavicle 7.35503e-015 -1.05356e-014
rhumerus -61.8714 2.47836 -79.6976
rradius 66.3784
rwrist 8.87193
rhand -10.4544 -11.1022
rfingers 7.12502
rthumb 15.546 -40.4973
lclavicle 7.35503e-015 -1.05356e-014
lhumerus -33.2455 -24.7539 84.1137
lradius 88.176
lwrist -24.9451
lhand -9.05998 7.32983
lfingers 7.12502
lthumb 16.8887 36.6155
rfemur -51.8288 5.18992 17.3557
rtibia 59.3828
rfoot -5.06362 -19.3841
rtoes -24.7953
lfemur -6.22685 -2.35571 -24.5668
ltibia 50.5524
lfoot 29.7814 1.92338
ltoes 0.951645
603
root 2.22823 15.1752 -21.9164 -162.96 3.52944 -182.095
lowerback 3.80316 -3.57169 -2.60453
upperback 3.92738 -4.62183 0.517533
thorax 2.16736 -2.29961 2.06279
lowerneck -29.9273 4.05741 6.34875
upperneck 36.8786 6.97339 -4.71615
head 19.8338 3.40602 -1.46736
rclavicle 1.14301e-014 3.97569e-016
rhumerus -61.8044 2.83256 -79.8691
rradius 67.4163
rwrist 8.7575
rhand -11.1395 -11.3341
rfingers 7.12502
rthumb 14.8861 -40.7793
lclavicle 1.14301e-014 3.97569e-016
lhumerus -34.725 -24.9809 84.7666
lradius 88.8078
lwrist -25.0291
lhand -8.96561 6.91722
lfingers 7.12502
lthumb 16.9795 36.1951
rfemur -50.5188 5.11584 17.7542
rtibia 60.0477
rfoot -5.89968 -19.6865
rtoes -25.2316
lfemur -6.14712 -2.55548 -24.5923
ltibia 51.7653
lfoot 30.459 1.70744
ltoes 1.04205
604
root 2.26235 15.156 -22.1901 -163.335 3.60463 -181.952
lowerback 3.58567 -3.48225 -2.59439
upperback 3.75703 -4.518 0.606039
thorax 2.11272 -2.25377 2.13894
lowerneck -29.9437 4.01014 6.38581
upperneck 36.9789 6.9375 -4.78164
head 19.9034 3.39691 -1.5136
rclavicle -3.67752e-015 8.15017e-015
rhumerus -61.5713 3.15721 -80.1158
rradius 68.383
rwrist 8.68181
rhand -11.7342 -11.4916
rfingers 7.12502
rthumb 14.3131 -40.9782
lclavicle -3.67752e-015 8.15017e-015
lhumerus -36.1748 -25.1357 85.4547
lradius 89.409
lwrist -25.1316
lhand -8.90111 6.52478
lfingers 7.12502
lthumb 17.0416 35.7973
rfemur -49.0044 5.00619 18.257
rtibia 60.3426
rfoot -6.67704 -20.0229
rtoes -25.6317
lfemur -6.18139 -2.60848 -24.4959
ltibia 53.171
lfoot 30.5558 1.74325
ltoes 0.832667
605
root 2.29357 15.1355 -22.4609 -163.72 3.64533 -181.705
lowerback 3.43062 -3.37268 -2.44583
upperback 3.6047 -4.38296 0.713119
thorax 2.03033 -2.18777 2.16098
lowerneck -29.9715 3.92495 6.35753
upperneck 37.0573 6.84004 -4.78735
head 19.9493 3.36213 -1.53515
rclavicle -4.59193e-014 1.70955e-014
rhumerus -61.1934 3.446 -80.4315
rradius 69.2889
rwrist 8.60602
rhand -12.2582 -11.5761
rfingers 7.12502
rthumb 13.8081 -41.0978
lclavicle -4.59193e-014 1.70955e-014
lhumerus -37.592 -25.2342 86.1969
lradius 89.9615
lwrist -25.2246
lhand -8.86466 6.18674
lfingers 7.12502
lthumb 17.0767 35.4562
rfemur -47.3064 4.82159 18.8646
rtibia 60.3288
rfoot -7.42783 -20.3598
rtoes -26.0355
lfemur -6.35931 -2.56009 -24.2677
ltibia 54.7877
lfoot 30.0436 2.07186
ltoes 0.411967
606
root 2.32311 15.1129 -22.7279 -164.083 3.63641 -181.342
lowerback 3.30966 -3.24872 -2.15863
upperback 3.46557 -4.22462 0.842977
thorax 1.93277 -2.10635 2.13104
lowerneck -30.014 3.81839 6.29977
upperneck 37.1057 6.69294 -4.75233
head 19.9717 3.30783 -1.54442
rclavicle -1.51076e-014 2.5842e-015
rhumerus -60.6752 3.70652 -80.8393
rradius 70.1316
rwrist 8.54456
rhand -12.7094 -11.6182
rfingers 7.12502
rthumb 13.3733 -41.169
lclavicle -1.51076e-014 2.5842e-015
lhumerus -38.9547 -25.2925 86.9686
lradius 90.4201
lwrist -25.2955
lhand -8.91348 5.93316
lfingers 7.12502
lthumb 17.0297 35.2067
rfemur -45.4884 4.59259 19.5791
rtibia 60.088
rfoot -8.17042 -20.6848
rtoes -26.5056
lfemur -6.74004 -2.43336 -23.8734
ltibia 56.6336
lfoot 29.003 2.62849
ltoes -0.137674
607
root 2.35161 15.0878 -22.9904 -164.393 3.57199 -180.871
lowerback 3.20488 -3.1102 -1.74922
upperback 3.31771 -4.04418 1.00077
thorax 1.81034 -2.01116 2.06275
lowerneck -30.0687 3.68797 6.22711
upperneck 37.1594 6.50222 -4.68842
head 19.9941 3.2391 -1.54799
rclavicle 1.67476e-014 3.27995e-015
rhumerus -60.0462 3.97168 -81.3442
rradius 70.9348
rwrist 8.42809
rhand -13.0943 -11.6636
rfingers 7.12502
rthumb 13.0023 -41.2384
lclavicle 1.67476e-014 3.27995e-015
lhumerus -40.2714 -25.299 87.7785
lradius 90.7526
lwrist -25.4026
lhand -9.04133 5.76117
lfingers 7.12502
lthumb 16.9066 35.0453
rfemur -43.6275 4.33985 20.3822
rtibia 59.7033
rfoot -8.90385 -21.0156
rtoes -27.0349
lfemur -7.36911 -2.25514 -23.3118
ltibia 58.7053
lfoot 27.5562 3.3149
ltoes -0.809214
